<?xml version="1.0" encoding="utf-8"?>
<!-- Generator: Adobe Illustrator 19.0.0, SVG Export Plug-In . SVG Version: 6.00 Build 0)  -->
<svg version="1.1" id="Слой_1" xmlns="http://www.w3.org/2000/svg" xmlns:xlink="http://www.w3.org/1999/xlink" x="0px" y="0px"
	 viewBox="0 0 360 604.1" style="enable-background:new 0 0 360 604.1;" xml:space="preserve">
<style type="text/css">
	.st0{fill-rule:evenodd;clip-rule:evenodd;fill:#404042;}
	.st1{fill-rule:evenodd;clip-rule:evenodd;fill:#FEDE00;}
	.st2{fill:#404042;}
</style>
<g>
	<polygon class="st0" points="0,367.8 360,367.8 360,0 0,0 0,367.8 	"/>
	<polygon class="st1" points="0,367.8 360,367.8 360,604.1 0,604.1 0,367.8 	"/>
	<path class="st2" d="M35.4,471.3c1,0,1.9-0.4,2.1-1.3l3.7-12.1h22.4l3.7,12.1c0.3,0.9,1.1,1.3,2,1.3c1.5,0,3.2-1,3.2-2.3
		c0-0.2-0.1-0.3-0.1-0.5l-16.8-53.1c-0.4-1.2-1.8-1.8-3.2-1.8c-1.4,0-2.8,0.5-3.2,1.8l-16.9,53.1c-0.1,0.2-0.1,0.4-0.1,0.5
		C32.3,470.4,34,471.3,35.4,471.3L35.4,471.3z M42.6,453.5l9.9-31.5l9.8,31.5H42.6L42.6,453.5z M118.2,471.3c1.2,0,1.8-1.2,1.8-2.4
		c0-1.2-0.6-2.3-1.8-2.3H95.1V416c0-1.3-1.4-1.9-2.7-1.9c-1.4,0-2.7,0.5-2.7,1.9v53.3c0,1.3,1.2,2,2.4,2H118.2L118.2,471.3z
		 M141.8,418.9h25.9c1.3,0,2-1.2,2-2.5c0-1.1-0.6-2.3-2-2.3h-28.8c-1.2,0-2.4,0.6-2.4,2v53.2c0,1.3,1.2,2,2.4,2h28.8
		c1.5,0,2-1.3,2-2.3c0-1.3-0.7-2.4-2-2.4h-25.9v-21.7h12.7c1.5,0,2-1.1,2-2.1c0-1.3-0.7-2.3-2-2.3h-12.7V418.9L141.8,418.9z
		 M186.9,469.3c0,1,0.9,2,2.4,2h15.2c9,0,16-4.2,16-16.1v-1.4c0-8-3.4-11.5-8.3-13.5c4.1-1.7,6.9-6.3,6.9-12.9
		c0-11-7.4-13.3-16.5-13.3h-13.3c-1.2,0-2.4,0.6-2.4,2V469.3L186.9,469.3z M192.2,466.5v-24h11.7c7,0,11.3,3,11.3,11.1v1.3
		c0,8.1-4.3,11.6-11.3,11.6H192.2L192.2,466.5z M192.2,418.9h10.3c6.6,0,11.3,1.9,11.3,9.1c0,7.4-3.6,10.1-11,10.1h-10.6V418.9
		L192.2,418.9z M255.9,471.8c9.5,0,16.8-4.5,16.8-16.7v-24.3c0-12.1-7.4-16.7-16.8-16.7c-9.5,0-16.8,4.5-16.8,16.7V455
		C239.1,467.2,246.5,471.8,255.9,471.8L255.9,471.8z M267.4,455c0,8.2-4.3,12-11.5,12s-11.5-3.8-11.5-12v-24.3
		c0-8.1,4.3-11.9,11.5-11.9s11.5,3.8,11.5,11.9V455L267.4,455z M293.7,469.3c0,1.3,1.3,2,2.7,2c1.3,0,2.7-0.7,2.7-2v-24h10.3
		l12.5,23.5c0.6,1.3,1.5,2.7,2.8,2.7c1.5,0,3.1-1.3,3.1-2.7c0-0.3-0.1-0.7-0.3-1l-12.5-23.2c7-1.2,12.6-5.4,12.6-15.1
		c0-11.7-8-15.4-17.5-15.4h-14.3c-1.2,0.1-2,0.9-2,1.9V469.3L293.7,469.3z M310.1,418.9c7.2,0,12.1,3.1,12.1,10.9
		c0,7.9-4.9,11-12.1,11h-11v-21.9H310.1L310.1,418.9z"/>
	<path class="st2" d="M32.3,547.7c0,0.8,0.8,1.2,1.6,1.2c0.8,0,1.6-0.4,1.6-1.2v-14.4h6.2l7.5,14.1c0.4,0.8,0.9,1.6,1.7,1.6
		c0.9,0,1.8-0.8,1.8-1.6c0-0.2,0-0.4-0.2-0.6l-7.5-13.9c4.2-0.7,7.6-3.2,7.6-9.1c0-7-4.8-9.3-10.5-9.3h-8.6c-0.7,0-1.2,0.5-1.2,1.1
		V547.7L32.3,547.7z M42.2,517.4c4.3,0,7.3,1.8,7.3,6.5c0,4.7-3,6.6-7.3,6.6h-6.6v-13.2H42.2L42.2,517.4z M66.8,517.4h15.6
		c0.8,0,1.2-0.7,1.2-1.5c0-0.7-0.3-1.4-1.2-1.4H65.1c-0.7,0-1.5,0.4-1.5,1.2v32c0,0.8,0.7,1.2,1.5,1.2h17.3c0.9,0,1.2-0.8,1.2-1.4
		c0-0.8-0.4-1.5-1.2-1.5H66.8v-13h7.6c0.9,0,1.2-0.7,1.2-1.3c0-0.8-0.4-1.4-1.2-1.4h-7.6V517.4L66.8,517.4z M93.1,548.9
		c0.6,0,1.1-0.2,1.3-0.8l2.2-7.2H110l2.2,7.2c0.2,0.6,0.7,0.8,1.2,0.8c0.9,0,1.9-0.6,1.9-1.4c0-0.1,0-0.2,0-0.3l-10.1-31.9
		c-0.2-0.7-1.1-1.1-1.9-1.1c-0.8,0-1.7,0.3-1.9,1.1l-10.2,31.9c0,0.1,0,0.2,0,0.3C91.2,548.4,92.2,548.9,93.1,548.9L93.1,548.9z
		 M97.4,538.2l5.9-18.9l5.9,18.9H97.4L97.4,538.2z M142.8,548.9c0.7,0,1.1-0.7,1.1-1.5c0-0.7-0.3-1.4-1.1-1.4h-13.9v-30.4
		c0-0.8-0.8-1.1-1.6-1.1c-0.8,0-1.6,0.3-1.6,1.1v32c0,0.8,0.7,1.2,1.5,1.2H142.8L142.8,548.9z M166.7,517.4h15.6
		c0.8,0,1.2-0.7,1.2-1.5c0-0.7-0.3-1.4-1.2-1.4H165c-0.7,0-1.5,0.4-1.5,1.2v32c0,0.8,0.7,1.2,1.5,1.2h17.3c0.9,0,1.2-0.8,1.2-1.4
		c0-0.8-0.4-1.5-1.2-1.5h-15.6v-13h7.6c0.9,0,1.2-0.7,1.2-1.3c0-0.8-0.4-1.4-1.2-1.4h-7.6V517.4L166.7,517.4z M201.6,546.3
		c-6.1,0-7-3.9-8.3-3.9c-0.7,0-1.5,1-1.5,1.7c0,1.7,3.7,5.1,10,5.1c6,0,10.3-3,10.3-9.7c0-13-16.1-8.1-16.1-16.8
		c0-4.2,3.5-5.5,7-5.5c4.3,0,5.9,1.8,6.8,1.8c0.9,0,1.4-1.1,1.4-1.7c0-1.7-4.5-2.9-8.2-2.9c-4.5,0-10.3,1.7-10.3,8.6
		c0,11.5,16.1,6.4,16.1,16.8C208.9,544.1,206.1,546.3,201.6,546.3L201.6,546.3z M221.6,514.5c-0.8,0-1.2,0.8-1.2,1.5
		c0,0.8,0.4,1.5,1.2,1.5h8.2v30.2c0,0.8,0.8,1.2,1.6,1.2c0.8,0,1.6-0.4,1.6-1.2v-30.2h8.1c0.8,0,1.2-0.8,1.2-1.5
		c0-0.7-0.4-1.4-1.2-1.4H221.6L221.6,514.5z M248.8,548.9c0.6,0,1.1-0.2,1.3-0.8l2.2-7.2h13.5l2.2,7.2c0.2,0.6,0.7,0.8,1.2,0.8
		c0.9,0,1.9-0.6,1.9-1.4c0-0.1,0-0.2,0-0.3L261,515.3c-0.2-0.7-1.1-1.1-1.9-1.1c-0.8,0-1.7,0.3-1.9,1.1L247,547.2c0,0.1,0,0.2,0,0.3
		C247,548.4,248,548.9,248.8,548.9L248.8,548.9z M253.1,538.2l5.9-18.9l5.9,18.9H253.1L253.1,538.2z M277,514.5
		c-0.8,0-1.2,0.8-1.2,1.5c0,0.8,0.4,1.5,1.2,1.5h8.2v30.2c0,0.8,0.8,1.2,1.6,1.2c0.8,0,1.6-0.4,1.6-1.2v-30.2h8.1
		c0.8,0,1.2-0.8,1.2-1.5c0-0.7-0.4-1.4-1.2-1.4H277L277,514.5z M310.9,517.4h15.6c0.8,0,1.2-0.7,1.2-1.5c0-0.7-0.3-1.4-1.2-1.4
		h-17.3c-0.7,0-1.5,0.4-1.5,1.2v32c0,0.8,0.7,1.2,1.5,1.2h17.3c0.9,0,1.2-0.8,1.2-1.4c0-0.8-0.4-1.5-1.2-1.5h-15.6v-13h7.6
		c0.9,0,1.2-0.7,1.2-1.3c0-0.8-0.4-1.4-1.2-1.4h-7.6V517.4L310.9,517.4z"/>
	<path class="st1" d="M193.1,128.3h52.6c2.4,0,4.6-1,6.2-2.6c1.6-1.6,2.6-3.8,2.6-6.2v-25c0-2.4-1-4.6-2.6-6.2
		c-1.6-1.6-3.8-2.6-6.2-2.6h-52.6c-2.4,0-4.6,1-6.2,2.6c-1.6,1.6-2.6,3.8-2.6,6.2v25c0,2.4,1,4.6,2.6,6.2
		C188.5,127.3,190.7,128.3,193.1,128.3L193.1,128.3z M184.4,145.8v25c0,2.4,1,4.6,2.6,6.2c1.6,1.6,3.8,2.6,6.2,2.6h52.6
		c2.4,0,4.6-1,6.2-2.6c1.6-1.6,2.6-3.8,2.6-6.2v-25c0-2.4-1-4.6-2.6-6.2c-1.6-1.6-3.8-2.6-6.2-2.6h-52.6c-2.4,0-4.6,1-6.2,2.6
		C185.4,141.2,184.4,143.4,184.4,145.8L184.4,145.8z M184.4,197.1v25c0,2.4,1,4.6,2.6,6.2c1.6,1.6,3.8,2.6,6.2,2.6h52.6
		c2.4,0,4.6-1,6.2-2.6c1.6-1.6,2.6-3.8,2.6-6.2v-25c0-2.4-1-4.6-2.6-6.2c-1.6-1.6-3.8-2.6-6.2-2.6h-52.6c-2.4,0-4.6,1-6.2,2.6
		C185.4,192.5,184.4,194.6,184.4,197.1L184.4,197.1z M184.4,248.3v25c0,2.4,1,4.6,2.6,6.2c1.6,1.6,3.8,2.6,6.2,2.6h52.6
		c2.4,0,4.6-1,6.2-2.6c1.6-1.6,2.6-3.8,2.6-6.2v-25c0-2.4-1-4.6-2.6-6.2c-1.6-1.6-3.8-2.6-6.2-2.6h-52.6c-2.4,0-4.6,1-6.2,2.6
		C185.4,243.7,184.4,245.9,184.4,248.3L184.4,248.3z M166.9,239.6h-52.6c-2.4,0-4.6,1-6.2,2.6c-1.6,1.6-2.6,3.8-2.6,6.2v25
		c0,2.4,1,4.6,2.6,6.2c1.6,1.6,3.8,2.6,6.2,2.6h52.6c2.4,0,4.6-1,6.2-2.6c1.6-1.6,2.6-3.8,2.6-6.2v-25c0-2.4-1-4.6-2.6-6.2
		C171.5,240.6,169.3,239.6,166.9,239.6L166.9,239.6z M166.9,188.3h-52.6c-2.4,0-4.6,1-6.2,2.6c-1.6,1.6-2.6,3.8-2.6,6.2v25
		c0,2.4,1,4.6,2.6,6.2c1.6,1.6,3.8,2.6,6.2,2.6h52.6c2.4,0,4.6-1,6.2-2.6c1.6-1.6,2.6-3.8,2.6-6.2v-25c0-2.4-1-4.6-2.6-6.2
		S169.3,188.3,166.9,188.3L166.9,188.3z M166.9,137h-52.6c-2.4,0-4.6,1-6.2,2.6c-1.6,1.6-2.6,3.8-2.6,6.2v25c0,2.4,1,4.6,2.6,6.2
		c1.6,1.6,3.8,2.6,6.2,2.6h52.6c2.4,0,4.6-1,6.2-2.6c1.6-1.6,2.6-3.8,2.6-6.2v-25c0-2.4-1-4.6-2.6-6.2
		C171.5,138,169.3,137,166.9,137L166.9,137z"/>
</g>
</svg>
