<?xml version="1.0" encoding="utf-8"?>
<!-- Generator: Adobe Illustrator 19.0.0, SVG Export Plug-In . SVG Version: 6.00 Build 0)  -->
<svg version="1.1" id="Группа_3" xmlns="http://www.w3.org/2000/svg" xmlns:xlink="http://www.w3.org/1999/xlink" x="0px"
	 y="0px" viewBox="-284 407.9 27 27" style="enable-background:new -284 407.9 27 27;" xml:space="preserve">
<style type="text/css">
	.st0{fill:#93DAF8;}
	.st1{fill:#97E0FF;}
</style>
<path id="Forma_1" class="st0" d="M-262.7,420l-9.5-4.5c-0.2-0.1-0.4,0-0.5,0.2l-2,3.9c0,0.1-0.1,0.2,0,0.3c0,0.1,0.1,0.2,0.2,0.2
	l2.8,1.4l-0.3,0.5c-0.1,0.2,0,0.4,0.1,0.5c0,0,0,0,0,0l0.1,0l-0.5,0.8h-2.9c-0.3-0.5-0.8-0.8-1.4-0.8v3.1c0.6,0,1.1-0.3,1.4-0.8h3.3
	c0.3,0,0.5-0.1,0.7-0.4l0.7-1.3l0.1,0.1c0.2,0.1,0.4,0,0.5-0.2l0.3-0.5l2.1,1c0.1,0.1,0.3,0,0.4,0l0.6-0.4l1,0.5c0.1,0,0.1,0,0.2,0
	c0,0,0.1,0,0.1,0c0.1,0,0.2-0.1,0.2-0.2l1.1-2.1l1.1-0.7c0.1-0.1,0.2-0.2,0.2-0.3C-262.5,420.1-262.6,420-262.7,420z"/>
<path class="st1" d="M-270.5,434.9c-7.4,0-13.5-6.1-13.5-13.5s6.1-13.5,13.5-13.5c7.4,0,13.5,6.1,13.5,13.5
	S-263.1,434.9-270.5,434.9z M-270.5,408.9c-6.9,0-12.5,5.6-12.5,12.5c0,6.9,5.6,12.5,12.5,12.5s12.5-5.6,12.5-12.5
	C-258,414.5-263.6,408.9-270.5,408.9z"/>
</svg>
