<?xml version="1.0" encoding="utf-8"?>
<!-- Generator: Adobe Illustrator 19.0.0, SVG Export Plug-In . SVG Version: 6.00 Build 0)  -->
<svg version="1.1" id="Слой_1" xmlns="http://www.w3.org/2000/svg" xmlns:xlink="http://www.w3.org/1999/xlink" x="0px" y="0px"
	 viewBox="-272 396 49.9 50.7" style="enable-background:new -272 396 49.9 50.7;" xml:space="preserve">
<g>
	<polygon points="-268.6,446.6 -249.4,446.7 -249.4,423.5 -268.6,423.5 	"/>
	<path d="M-230.9,406.8c1.7-3.1,1.4-6.7-0.9-8.9c-1.4-1.3-3.2-2-5.1-1.9c-2.7,0.1-5.2,1.1-7.2,3c-1.9,1.8-2.6,4.6-2.9,7.1
		c-0.3-2.4-1-5.3-2.9-7.1c-1.9-1.9-4.5-2.9-7.2-3c-1.9,0-3.7,0.6-5.1,1.9c-1.6,1.5-2.3,3.7-2,5.9c0.1,1.1,0.5,2.1,1,3l-8.8,0l0,12.7
		l22.6,0l0-6.3l4.6,0l0,6.3l22.6,0l0-12.7L-230.9,406.8z M-257.7,406.3c-0.9-0.8-1.5-1.9-1.7-3.1c-0.1-0.7,0.1-1.5,0.6-2.1l0,0
		c0.5-0.4,1.1-0.6,1.7-0.6c1.4,0.1,2.8,0.7,3.8,1.7c1,1,1.5,3.4,1.6,5.6C-254.6,407.6-256.8,407.1-257.7,406.3z M-236.4,406.3
		c-0.9,0.8-3.1,1.4-5.9,1.5c0.1-2.2,0.6-4.6,1.6-5.6l0,0c1-1,2.4-1.6,3.8-1.6c0.6,0,1.2,0.2,1.7,0.6
		C-234.1,402.2-234.7,404.6-236.4,406.3z"/>
	<polygon points="-244.9,446.7 -225.7,446.7 -225.6,423.6 -244.8,423.5 	"/>
</g>
</svg>
