<?xml version="1.0" encoding="utf-8"?>
<!-- Generator: Adobe Illustrator 19.0.0, SVG Export Plug-In . SVG Version: 6.00 Build 0)  -->
<svg version="1.1" id="send" xmlns="http://www.w3.org/2000/svg" xmlns:xlink="http://www.w3.org/1999/xlink" x="0px" y="0px"
	 viewBox="-284 407.9 27 27" style="enable-background:new -284 407.9 27 27;" xml:space="preserve">
<style type="text/css">
	.st0{fill:#97E0FF;}
</style>
<path id="Forma_1_copy_3" class="st0" d="M-265.6,416.4c-0.1,0-0.1-0.1-0.2,0l-11.6,5.4c-0.1,0-0.1,0.1-0.1,0.2c0,0,0,0.1,0.1,0.1
	l3.3,1.6c0.1,0,0.1,0,0.2,0l3.2-2.4l-2.5,2.6c0,0-0.1,0.1,0,0.1l0.3,3.2c0,0.1,0.1,0.1,0.1,0.2c0,0,0,0,0.1,0c0.1,0,0.1,0,0.1-0.1
	l1.7-2l2.2,1c0,0,0.1,0,0.1,0c0,0,0.1-0.1,0.1-0.1l3-9.6C-265.5,416.6-265.5,416.5-265.6,416.4z"/>
<path class="st0" d="M-270.5,434.9c-7.4,0-13.5-6.1-13.5-13.5s6.1-13.5,13.5-13.5c7.4,0,13.5,6.1,13.5,13.5
	S-263.1,434.9-270.5,434.9z M-270.5,408.9c-6.9,0-12.5,5.6-12.5,12.5c0,6.9,5.6,12.5,12.5,12.5s12.5-5.6,12.5-12.5
	C-258,414.5-263.6,408.9-270.5,408.9z"/>
</svg>
