<svg xmlns="http://www.w3.org/2000/svg" width="22" height="22" viewBox="0 0 22 22">
  <defs>
    <style>
      .cls-1 {
        fill: #fff;
        fill-rule: evenodd;
      }
    </style>
  </defs>
  <path id="Forma_1" data-name="Forma 1" class="cls-1" d="M1165,276a11,11,0,1,0,11,11A11.009,11.009,0,0,0,1165,276Zm0,20.114a9.114,9.114,0,1,1,9.11-9.114A9.118,9.118,0,0,1,1165,296.114Zm4.26-13.37a0.951,0.951,0,0,0-1.34,0l-2.92,2.924-2.92-2.924a0.945,0.945,0,1,0-1.34,1.333l2.93,2.924-2.93,2.923a0.945,0.945,0,0,0,1.34,1.333l2.92-2.923,2.92,2.923a0.945,0.945,0,1,0,1.34-1.333L1166.33,287l2.93-2.924A0.958,0.958,0,0,0,1169.26,282.744Z" transform="translate(-1154 -276)"/>
</svg>
