<?xml version="1.0" encoding="utf-8"?>
<!-- Generator: Adobe Illustrator 19.0.0, SVG Export Plug-In . SVG Version: 6.00 Build 0)  -->
<svg version="1.1" id="call" xmlns="http://www.w3.org/2000/svg" xmlns:xlink="http://www.w3.org/1999/xlink" x="0px" y="0px"
	 viewBox="-568 815.8 27 27" style="enable-background:new -568 815.8 27 27;" xml:space="preserve">
<style type="text/css">
	.st0{fill:#97E0FF;}
	.st1{fill:#87D4F5;}
</style>
<path class="st0" d="M-554.5,842.8c-7.4,0-13.5-6.1-13.5-13.5s6.1-13.5,13.5-13.5s13.5,6.1,13.5,13.5S-547.1,842.8-554.5,842.8z
	 M-554.5,816.8c-6.9,0-12.5,5.6-12.5,12.5s5.6,12.5,12.5,12.5s12.5-5.6,12.5-12.5S-547.6,816.8-554.5,816.8z"/>
<path id="Forma_1_1_" class="st1" d="M-554.5,825.8c1.9,0,3-0.1,3.2,2h2.3c0-3.2-2.8-3.6-5.5-3.6s-5.5,0.4-5.5,3.6h2.2
	C-557.6,825.7-556.3,825.8-554.5,825.8z M-558.9,828.8c0.6,0,1,0,1.1-0.5c0-0.1,0-0.2,0-0.3h-2.3
	C-560.1,828.9-559.6,828.8-558.9,828.8z M-551.3,828.1L-551.3,828.1c0,0.1,0,0.2,0,0.3c0.1,0.5,0.6,0.5,1.1,0.5c0.6,0,1.1,0,1.1-0.7
	C-549.1,828.1-551.3,828.1-551.3,828.1z M-552.4,827.5v-0.3c0-0.1-0.2-0.2-0.4-0.2h-0.3c-0.2,0-0.4,0-0.4,0.2v0.5h-2.4v-0.5
	c0-0.1-0.2-0.2-0.4-0.2h-0.3c-0.2,0-0.4,0-0.4,0.2v0.6c-0.9,1-1.7,2.1-2.4,3.2v1.9c0,0.2,0.1,0.3,0.3,0.3h8.6c0.2,0,0.3-0.1,0.3-0.3
	V831c-0.7-1.1-1.5-2.2-2.4-3.2L-552.4,827.5L-552.4,827.5z M-556,831.3c-0.2,0-0.3-0.1-0.3-0.3c0-0.2,0.1-0.3,0.3-0.3
	c0.2,0,0.3,0.1,0.3,0.3l0,0C-555.6,831.1-555.8,831.3-556,831.3L-556,831.3L-556,831.3z M-556,830.2c-0.2,0-0.3-0.1-0.3-0.3
	c0-0.2,0.1-0.3,0.3-0.3c0.2,0,0.3,0.1,0.3,0.3l0,0C-555.6,830.1-555.8,830.2-556,830.2L-556,830.2z M-556,829.1
	c-0.2,0-0.3-0.1-0.3-0.3c0-0.2,0.1-0.3,0.3-0.3s0.3,0.1,0.3,0.3C-555.6,829-555.8,829.1-556,829.1L-556,829.1L-556,829.1z
	 M-554.7,831.3c-0.2,0-0.3-0.1-0.3-0.3c0-0.2,0.1-0.3,0.3-0.3s0.3,0.1,0.3,0.3l0,0C-554.4,831.1-554.5,831.3-554.7,831.3
	L-554.7,831.3L-554.7,831.3z M-554.7,830.2c-0.2,0-0.3-0.1-0.3-0.3c0-0.2,0.1-0.3,0.3-0.3s0.3,0.1,0.3,0.3l0,0
	C-554.4,830.1-554.5,830.2-554.7,830.2L-554.7,830.2z M-554.7,829.1c-0.2,0-0.3-0.1-0.3-0.3c0-0.2,0.1-0.3,0.3-0.3s0.3,0.1,0.3,0.3
	C-554.4,829-554.5,829.1-554.7,829.1L-554.7,829.1L-554.7,829.1z M-553.4,831.3c-0.2,0-0.3-0.1-0.3-0.3c0-0.2,0.1-0.3,0.3-0.3
	c0.2,0,0.3,0.1,0.3,0.3l0,0C-553.1,831.1-553.2,831.3-553.4,831.3L-553.4,831.3L-553.4,831.3z M-553.4,830.2c-0.2,0-0.3-0.1-0.3-0.3
	c0-0.2,0.1-0.3,0.3-0.3c0.2,0,0.3,0.1,0.3,0.3l0,0C-553.1,830.1-553.2,830.2-553.4,830.2L-553.4,830.2z M-553.4,829.1
	c-0.2,0-0.3-0.1-0.3-0.3c0-0.2,0.1-0.3,0.3-0.3c0.2,0,0.3,0.1,0.3,0.3l0,0C-553.1,829-553.2,829.1-553.4,829.1L-553.4,829.1
	L-553.4,829.1z"/>
</svg>
